<?xml version="1.0" encoding="UTF-8"?>
<!DOCTYPE svg PUBLIC "-//W3C//DTD SVG 1.1//EN" "http://www.w3.org/Graphics/SVG/1.1/DTD/svg11.dtd">
<svg xmlns="http://www.w3.org/2000/svg" version="1.1" width="1372px" height="613px" style="shape-rendering:geometricPrecision; text-rendering:geometricPrecision; image-rendering:optimizeQuality; fill-rule:evenodd; clip-rule:evenodd" xmlns:xlink="http://www.w3.org/1999/xlink">
<g><path style="opacity:0.97" fill="#16468e" d="M 515.5,212.5 C 530.926,211.932 546.259,212.765 561.5,215C 578.767,218.028 591.934,226.861 601,241.5C 603.27,246.644 604.937,251.978 606,257.5C 606.667,275.833 606.667,294.167 606,312.5C 600.584,357.578 576.417,387.411 533.5,402C 512.064,408.881 491.064,407.881 470.5,399C 448.102,384.676 440.269,364.51 447,338.5C 452.808,324.692 462.641,314.859 476.5,309C 497.678,301.763 519.345,296.43 541.5,293C 552.342,290.945 562.342,286.945 571.5,281C 579.339,268.951 577.673,258.285 566.5,249C 551.578,242.014 535.912,239.681 519.5,242C 496.091,244.636 474.424,252.136 454.5,264.5C 453.167,253.5 453.167,242.5 454.5,231.5C 473.889,221.701 494.222,215.368 515.5,212.5 Z M 575.5,307.5 C 576.693,307.97 577.36,308.97 577.5,310.5C 571.705,350.462 548.872,373.128 509,378.5C 498.382,378.688 489.382,375.021 482,367.5C 473.95,353.316 476.784,341.816 490.5,333C 494.935,330.449 499.601,328.449 504.5,327C 522.812,322.893 541.145,318.893 559.5,315C 565.355,313.34 570.688,310.84 575.5,307.5 Z"/></g>
<g><path style="opacity:0.989" fill="#16468e" d="M 627.5,213.5 C 637.5,213.5 647.5,213.5 657.5,213.5C 657.333,265.834 657.5,318.168 658,370.5C 658.454,373.612 660.287,375.278 663.5,375.5C 669.85,373.575 675.35,370.242 680,365.5C 680.667,376.167 680.667,386.833 680,397.5C 666.844,406.229 653.344,406.729 639.5,399C 633.494,394.15 629.661,387.983 628,380.5C 627.5,324.834 627.333,269.168 627.5,213.5 Z"/></g>
<g><path style="opacity:0.969" fill="#16468e" d="M 1018.5,226.5 C 1028.5,226.5 1038.5,226.5 1048.5,226.5C 1048.5,238.833 1048.5,251.167 1048.5,263.5C 1061.83,263.5 1075.17,263.5 1088.5,263.5C 1088.5,273.167 1088.5,282.833 1088.5,292.5C 1075.17,292.5 1061.83,292.5 1048.5,292.5C 1048.33,314.169 1048.5,335.836 1049,357.5C 1050.13,366.96 1055.46,371.96 1065,372.5C 1068.95,372.22 1072.79,371.387 1076.5,370C 1080.14,367.344 1084.14,365.511 1088.5,364.5C 1088.83,374.855 1088.5,385.188 1087.5,395.5C 1082.93,398.413 1077.93,400.247 1072.5,401C 1055.14,404.405 1040.31,399.905 1028,387.5C 1023.07,380.635 1020.07,372.968 1019,364.5C 1018.5,340.502 1018.33,316.502 1018.5,292.5C 1010.83,292.5 1003.17,292.5 995.5,292.5C 995.5,282.833 995.5,273.167 995.5,263.5C 1003.17,263.5 1010.83,263.5 1018.5,263.5C 1018.5,251.167 1018.5,238.833 1018.5,226.5 Z"/></g>
<g><path style="opacity:0.972" fill="#16468e" d="M 765.5,260.5 C 800.612,258.954 821.779,275.287 829,309.5C 829.5,339.165 829.667,368.831 829.5,398.5C 819.5,398.5 809.5,398.5 799.5,398.5C 799.667,373.164 799.5,347.831 799,322.5C 795.843,294.336 780.676,284.169 753.5,292C 741.312,298.843 734.479,309.343 733,323.5C 732.5,348.498 732.333,373.498 732.5,398.5C 722.167,398.5 711.833,398.5 701.5,398.5C 701.5,353.5 701.5,308.5 701.5,263.5C 711.5,263.5 721.5,263.5 731.5,263.5C 731.334,267.514 731.501,271.514 732,275.5C 741.713,267.057 752.88,262.057 765.5,260.5 Z"/></g>
<g><path style="opacity:0.689" fill="#16468e" d="M 1098.5,262.5 C 1103.5,262.5 1108.5,262.5 1113.5,262.5C 1113.5,263.5 1113.5,264.5 1113.5,265.5C 1111.83,265.5 1110.17,265.5 1108.5,265.5C 1108.5,269.833 1108.5,274.167 1108.5,278.5C 1107.17,278.5 1105.83,278.5 1104.5,278.5C 1104.5,274.167 1104.5,269.833 1104.5,265.5C 1102.5,265.5 1100.5,265.5 1098.5,265.5C 1098.5,264.5 1098.5,263.5 1098.5,262.5 Z"/></g>
<g><path style="opacity:0.712" fill="#16468e" d="M 1115.5,262.5 C 1117.5,262.5 1119.5,262.5 1121.5,262.5C 1122.36,265.911 1123.53,269.244 1125,272.5C 1126.17,269.5 1127.33,266.5 1128.5,263.5C 1130.4,262.534 1132.4,262.201 1134.5,262.5C 1134.5,267.833 1134.5,273.167 1134.5,278.5C 1133.17,278.5 1131.83,278.5 1130.5,278.5C 1131.06,267.15 1129.9,266.816 1127,277.5C 1125.67,278.833 1124.33,278.833 1123,277.5C 1120.1,266.816 1118.94,267.15 1119.5,278.5C 1118.17,278.5 1116.83,278.5 1115.5,278.5C 1115.5,273.167 1115.5,267.833 1115.5,262.5 Z"/></g>
<g><path style="opacity:0.963" fill="#16468e" d="M 223.5,263.5 C 234.52,263.168 245.52,263.501 256.5,264.5C 268.743,291.983 281.243,319.317 294,346.5C 304.226,323.048 314.726,299.715 325.5,276.5C 330.385,275.198 335.218,275.198 340,276.5C 350.287,300.037 360.954,323.37 372,346.5C 384.333,319.167 396.667,291.833 409,264.5C 419.752,263.513 430.585,263.18 441.5,263.5C 421.089,309.384 400.089,355.05 378.5,400.5C 374.285,401.798 370.118,401.798 366,400.5C 354.726,376.285 343.726,351.952 333,327.5C 321.833,351.833 310.667,376.167 299.5,400.5C 295.167,401.833 290.833,401.833 286.5,400.5C 265.209,354.92 244.209,309.254 223.5,263.5 Z"/></g>
<g><path style="opacity:0.962" fill="#16468e" d="M 851.5,263.5 C 861.833,263.5 872.167,263.5 882.5,263.5C 882.041,292.875 882.541,322.209 884,351.5C 888.96,365.949 899.127,373.282 914.5,373.5C 929.921,373.222 940.087,365.889 945,351.5C 946.459,322.209 946.959,292.875 946.5,263.5C 956.833,263.5 967.167,263.5 977.5,263.5C 977.667,290.835 977.5,318.169 977,345.5C 974.535,373.949 959.702,392.116 932.5,400C 907.632,405.731 885.799,400.231 867,383.5C 858.43,372.683 853.43,360.35 852,346.5C 851.5,318.835 851.333,291.169 851.5,263.5 Z"/></g>
<g><path style="opacity:0.944" fill="#16468e" d="M 1125.5,364.5 C 1144.56,364.399 1151.06,373.399 1145,391.5C 1137.44,399.34 1128.94,400.507 1119.5,395C 1111.5,386 1111.5,377 1119.5,368C 1121.43,366.541 1123.43,365.375 1125.5,364.5 Z"/></g>
</svg>
